PathFileType	4	(X/Y/Z)	..\data\2014025\dynamic\2014025_C5_02.trc
DataRate	CameraRate	NumFrames	NumMarkers	Units	OrigDataRate	OrigDataStartFrame	OrigNumFrames
100.000000	100.000000	4	52	mm	100.000000	15	125
Frame#	Time	L_IAS			L_IPS			R_IPS			R_IAS			L_FTC			L_FLE			L_FME			L_FAX			L_TTC			L_FAL			L_TAM			L_FCC			L_FM1			L_FM2			L_FM5			R_FTC			R_FLE			R_FME			R_FAX			R_TTC			R_FAL			R_TAM			R_FCC			R_FM1			R_FM2			R_FM5			CV7			TV10			SXS			SJN			L_SIA			L_SRS			L_SAA			L_SAE			L_HLE			L_HME			L_UOA			L_RSP			L_UHE			L_HM2			L_HM5			R_SIA			R_SRS			R_SAA			R_SAE			R_HLE			R_HME			R_UOA			R_RSP			R_UHE			R_HM2			R_HM5			
		X1	Y1	Z1	X2	Y2	Z2	X3	Y3	Z3	X4	Y4	Z4	X5	Y5	Z5	X6	Y6	Z6	X7	Y7	Z7	X8	Y8	Z8	X9	Y9	Z9	X10	Y10	Z10	X11	Y11	Z11	X12	Y12	Z12	X13	Y13	Z13	X14	Y14	Z14	X15	Y15	Z15	X16	Y16	Z16	X17	Y17	Z17	X18	Y18	Z18	X19	Y19	Z19	X20	Y20	Z20	X21	Y21	Z21	X22	Y22	Z22	X23	Y23	Z23	X24	Y24	Z24	X25	Y25	Z25	X26	Y26	Z26	X27	Y27	Z27	X28	Y28	Z28	X29	Y29	Z29	X30	Y30	Z30	X31	Y31	Z31	X32	Y32	Z32	X33	Y33	Z33	X34	Y34	Z34	X35	Y35	Z35	X36	Y36	Z36	X37	Y37	Z37	X38	Y38	Z38	X39	Y39	Z39	X40	Y40	Z40	X41	Y41	Z41	X42	Y42	Z42	X43	Y43	Z43	X44	Y44	Z44	X45	Y45	Z45	X46	Y46	Z46	X47	Y47	Z47	X48	Y48	Z48	X49	Y49	Z49	X50	Y50	Z50	X51	Y51	Z51	X52	Y52	Z52	

16	0.15	42.90270233154298	878.2523193359377	-411.3806762695314	-194.7028350830079	933.2095947265627	-347.8324584960938	-202.8481140136719	928.066345214844	-232.3268585205079	15.97309494018555	870.662292480469	-150.2628479003907	-38.48379516601563	832.2530517578127	-502.2807617187501	100.4407730102539	472.5384216308595	-428.1517944335939	89.45436096191408	458.3995361328126	-272.7598876953126	86.35617828369142	414.3262023925782	-432.9704895019532	141.5276489257813	389.5000305175782	-370.8200073242188	57.07310485839845	64.59809875488283	-380.5003356933594	63.08979415893556	74.83833312988283	-293.3157043457032	13.87332630157471	14.77084732055664	-334.9688110351563	194.7512817382813	20.98398017883301	-271.7829895019532	201.5390167236329	37.56840515136719	-333.0167846679688	168.4298858642578	18.38442039489746	-386.235809326172	-83.75656890869142	796.2548828125002	-68.31050109863283	-117.404411315918	429.9320678710939	-114.6077957153321	-60.20174789428712	409.0236206054689	-270.9456481933594	-178.9647216796875	404.156463623047	-121.5830764770508	-115.2141647338867	330.4511108398438	-160.9840850830078	-430.1822814941407	210.4182891845704	-211.4230499267579	-390.5358276367189	181.5187683105469	-283.9805603027344	-467.6815795898439	213.4173126220704	-286.3126220703126	-411.0968017578126	40.93322753906251	-263.2428588867188	-403.8536682128907	62.39247894287111	-209.7860412597657	-453.7033081054689	88.61073303222658	-176.6459655761719	-105.5492324829102	1390.813354492188	-308.7190551757813	-182.2766265869141	1167.95068359375	-290.7641906738282	75.80847167968751	1167.855834960938	-298.4179382324219	10.30980491638184	1309.889282226563	-303.6569824218751	-186.6804504394532	1200.20947265625	-392.175506591797	-147.2021484375	1333.328979492188	-389.7233886718751	-104.3212890625	1337.730224609375	-467.0796508789064	-56.79553604125978	1342.527954101563	-490.4769287109376	-156.6221160888672	1050.830078125	-569.1491088867189	-173.9798278808594	1033.1943359375	-478.3135986328126	-184.2727355957032	1038.997802734375	-525.2898559570314	-145.2174224853516	801.522399902344	-571.9727783203126	-210.6761322021485	828.4526977539065	-611.6320800781251	-171.2816772460938	718.5035400390626	-598.5367431640626	-237.1137847900391	780.0732421875002	-634.3410644531251	-184.8695678710938	1207.4375	-183.4469909667969	-144.6586151123047	1339.8935546875	-210.9571228027344	-96.39489746093753	1352.32568359375	-146.460678100586	-44.77592086791993	1356.107421875	-133.1626281738282	-14.11501693725586	1051.039672851563	-19.73726272583008	-34.35925292968751	1017.176086425781	-99.7832946777344	-25.86078262329102	1009.053405761719	-46.62320709228516	184.5255279541016	885.8363037109377	-44.91183853149415	150.0956115722657	868.5512695312502	9.501858711242678	233.084457397461	826.2734985351565	-23.29955863952637	146.5725402832032	816.317565917969	23.20782470703125	
17	0.16	59.9484329223633	882.0379638671877	-413.6030883789064	-177.27978515625	937.3725585937502	-347.3265686035157	-185.8407745361328	930.8959960937502	-231.5993194580079	33.46245574951173	873.861755371094	-151.2933502197266	-22.86710166931153	835.5628662109377	-503.346405029297	108.5192337036133	472.3919677734376	-429.2265930175782	97.00009918212893	457.8436889648439	-273.6441345214844	93.05273437500001	414.4069213867189	-433.9909973144532	147.7119598388672	388.1723937988282	-372.1388549804688	57.02550506591798	64.66513824462892	-381.3086242675782	62.81769943237306	75.21291351318361	-293.8831481933594	13.41509914398194	14.84364223480225	-335.2774658203126	193.9870910644532	22.00122833251953	-272.1817932128907	200.8253326416016	38.27669906616212	-333.2387390136719	168.2117919921875	18.73703384399414	-386.386932373047	-63.5051956176758	798.4072265625002	-68.97682952880861	-82.42019653320314	431.8486328125001	-112.3830184936524	-23.15365982055664	411.9996948242189	-268.6192932128907	-142.2064971923828	406.1221618652345	-119.1864929199219	-78.03679656982423	333.1258544921876	-158.4266662597657	-392.8272094726564	211.5591735839844	-209.5178527832032	-352.9107055664063	182.4583587646485	-282.0623474121094	-430.932830810547	212.3452148437501	-284.6792297363282	-369.6894531250001	42.2555046081543	-257.4323425292969	-363.0880737304688	65.18493652343751	-204.6204376220704	-413.4425354003907	91.54610443115236	-172.347900390625	-86.12296295166017	1395.128051757813	-308.4149780273438	-163.5320739746094	1172.294311523438	-292.2240295410157	94.15850830078126	1171.3955078125	-297.3811340332032	29.08889389038087	1313.930053710938	-302.7512817382813	-167.1461029052735	1204.914428710938	-393.8082580566407	-127.4537048339844	1337.988403320313	-390.1919250488282	-83.68859863281251	1342.290893554688	-467.2117004394532	-35.89619827270509	1347.059448242188	-489.9910278320314	-128.0046997070313	1052.904541015625	-570.8645019531251	-147.6608428955078	1035.1455078125	-480.4584045410157	-156.8383941650391	1040.443115234375	-527.7485351562501	-109.2646942138672	803.937683105469	-572.3801269531251	-174.537338256836	828.6733398437502	-613.7347412109376	-130.9420776367188	720.7081909179689	-600.0822143554689	-198.1684722900391	779.4644775390627	-637.5925903320314	-167.681396484375	1211.661010742188	-184.7471160888672	-126.0610122680664	1343.943603515625	-211.2451782226563	-78.32540130615236	1355.95458984375	-146.2986450195313	-26.6544589996338	1359.070922851563	-132.4104919433594	-2.890320301055909	1052.359008789063	-21.10859680175782	-22.71546745300293	1020.062744140625	-101.8100509643555	-15.64093399047852	1011.527160644531	-48.37862777709962	190.0274353027344	879.8269653320315	-43.49111938476563	154.1770172119141	863.8197021484377	10.41944599151612	235.5768432617188	817.793884277344	-21.48886680603028	148.0721740722657	811.6166992187502	23.88927459716797	
18	0.17	76.84442138671876	885.6961059570315	-415.5362548828126	-159.8264770507813	941.9087524414065	-347.3100280761719	-168.8952178955078	934.6723632812502	-231.593978881836	50.34566879272462	877.4727172851565	-151.5781707763672	-7.488745689392092	838.5044555664065	-504.2750549316407	115.1460952758789	471.9173278808595	-430.2112426757814	103.1487274169922	456.9507446289064	-274.2812805175782	98.32056427001956	414.2862243652345	-434.8374023437501	152.6433868408203	386.8186035156251	-373.3132629394532	57.16604614257814	64.8561477661133	-382.1880798339844	62.84239959716798	75.74509429931642	-294.5507507324219	13.22996997833252	15.25270938873291	-335.6220397949219	193.5832672119141	23.19871330261231	-272.6873168945313	200.3892517089844	39.05114746093751	-333.5570373535157	168.2815246582032	19.07612228393555	-386.5182495117189	-44.14448928833009	801.412292480469	-69.77898406982423	-47.47385787963868	434.9629211425782	-110.6257247924805	13.5037431716919	416.620330810547	-266.7669982910157	-105.3936538696289	408.5581054687501	-117.3192520141602	-40.28464508056641	336.8984375000001	-156.6241455078125	-353.3756408691407	210.3638458251954	-207.5631866455079	-313.1094665527344	181.7298736572266	-280.3378906250001	-392.3444824218751	208.1650848388672	-282.9076843261719	-323.4407348632813	42.39179611206055	-251.6712188720704	-317.7991027832032	67.04074096679689	-199.5773315429688	-368.8586730957032	92.44776153564455	-167.9907379150391	-66.88577270507814	1399.537719726563	-307.8595275878907	-144.9140930175782	1176.747802734375	-293.5451660156251	112.3155059814453	1175.0732421875	-296.2040710449219	47.67832946777344	1318.126220703125	-301.6976928710938	-147.8080749511719	1209.799682617188	-395.2221679687501	-107.9541625976563	1342.822021484375	-390.3479309082032	-63.34077835083009	1347.0859375	-467.0171813964845	-15.31755065917969	1351.815795898438	-489.2081298828126	-99.24146270751956	1055.306518554688	-572.2938232421876	-121.1568145751953	1037.310546875	-482.4179077148439	-129.1673889160157	1042.061889648438	-530.0058593750001	-72.57612609863283	806.9006347656252	-572.4190063476564	-137.6302947998047	829.2874145507815	-615.4014282226564	-89.35714721679689	723.7644042968751	-601.4500732421876	-158.2182312011719	779.268005371094	-640.4172363281251	-150.6481475830078	1215.972412109375	-185.9760894775391	-107.6778793334961	1348.084350585938	-211.3724365234376	-60.51539611816408	1359.698974609375	-146.0238952636719	-8.83377265930176	1362.175659179688	-131.4898376464844	7.92046117782593	1053.964233398438	-22.40686416625977	-11.67829322814942	1023.346435546875	-103.6405410766602	-5.792652130126954	1014.337951660156	-50.11581039428712	194.4808502197266	874.0454711914065	-42.01859283447266	157.212387084961	859.4545898437502	11.36358165740967	236.8200225830079	809.5714111328127	-19.68319129943848	148.5173797607422	807.3528442382815	24.57674026489259	
19	0.18	93.7058792114258	889.1373291015627	-417.0662536621095	-142.249496459961	946.6900634765627	-347.8440856933594	-151.9163360595703	939.2312622070315	-232.3265838623047	66.75731658935548	881.4501953125002	-151.1834411621094	7.808753967285158	841.0776367187502	-505.0411987304689	120.5811386108399	471.2078247070314	-431.0028686523439	108.0664672851563	455.8851928710939	-274.6342773437501	102.4363632202149	414.0327453613282	-435.4255371093751	156.5151062011719	385.4823608398439	-374.1815185546876	57.46206283569337	65.14407348632814	-383.0155944824219	63.0900115966797	76.34197235107423	-295.1971435546876	13.24471664428711	15.92054080963135	-335.9462280273438	193.486068725586	24.35836601257325	-273.2157897949219	200.2181243896485	39.76586532592774	-333.9024047851563	168.5531616210938	19.36326026916504	-386.6175842285157	-25.63598442077637	805.2017822265627	-70.70259094238283	-12.72856903076172	439.1706848144532	-109.3575134277344	49.53810501098634	422.7291259765626	-265.3977050781251	-68.72418212890626	411.3598937988282	-115.9774627685547	-2.190963029861451	341.6600341796876	-155.5656890869141	-311.9976501464844	206.8441925048829	-205.5120544433594	-271.2903137207032	179.3105773925782	-278.7319946289063	-351.9550476074219	201.0213928222657	-280.9309997558594	-272.9230957031251	41.37406921386719	-246.0738525390626	-268.5549926757813	67.85800170898439	-194.7437133789063	-320.4586486816407	91.30271911621095	-163.6440734863282	-47.83039093017579	1403.920654296875	-307.1110839843751	-126.3994064331055	1181.19091796875	-294.7555847167969	130.3334655761719	1178.8349609375	-294.9095153808594	66.08972167968751	1322.36962890625	-300.5418090820313	-128.6321258544922	1214.73486328125	-396.4704895019532	-88.68563079833986	1347.697265625	-390.2474975585939	-43.27412796020509	1351.979614257813	-466.5559997558595	4.951115608215333	1356.661376953125	-488.1876831054689	-70.40376281738283	1057.963989257813	-573.4547729492189	-94.51678466796876	1039.606079101563	-484.2031555175782	-101.3087539672852	1043.785278320313	-532.0687255859376	-35.33724975585938	810.3762207031252	-572.0929565429689	-100.1237335205078	830.290222167969	-616.6260986328126	-46.81431198120118	727.6639404296876	-602.5860595703126	-117.4889297485352	779.5123291015627	-642.7597045898439	-133.7173004150391	1220.23095703125	-187.189193725586	-89.49460601806642	1352.17919921875	-211.4067382812501	-42.96498107910157	1363.440307617188	-145.6932678222657	8.669108390808107	1365.338500976563	-130.4500122070313	18.42785072326661	1055.809204101563	-23.63814926147461	-1.105701923370362	1026.949829101563	-105.282096862793	3.815322875976563	1017.425048828125	-51.83581542968751	198.0043029785157	868.5596313476565	-40.48375320434571	159.3217010498047	855.5179443359377	12.32624912261963	236.9621734619141	801.7464599609377	-17.85839653015137	148.0537414550782	803.6021728515627	25.25269889831544	
